<svg xmlns="http://www.w3.org/2000/svg" version="1.1" xmlns:xlink="http://www.w3.org/1999/xlink" xmlns:svgjs="http://svgjs.com/svgjs" width="512" height="512" x="0" y="0" viewBox="0 0 512 512" style="enable-background:new 0 0 512 512" xml:space="preserve" class=""><g transform="matrix(1,0,0,1,30,0)"><path fill="#8400ff" d="m0 0 31.8 448.102L226.2 512l194.398-63.898L452.398 0zm0 0" data-original="#ff7816" class=""></path><path fill="#6e00d4" d="m452.398 0-31.8 448.102L226.199 512V0zm0 0" data-original="#ff4b00" class=""></path><path fill="#ececf1" d="M367.5 136H145.2l5.398 75h211.504l-12.903 181.598-123 41.101-123-41.101L99 332h60l1.2 16.5 66 21.898 66-21.898 5.398-77.5H94.5L80.7 76h291zm0 0" data-original="#ececf1"></path><g fill="#e2e2e7"><path d="m362.102 211-12.903 181.598-123 41.101v-63.3l66-21.899 5.399-77.5h-71.399v-60zM371.7 76l-4.2 60H226.2V76zm0 0" fill="#e2e2e7" data-original="#e2e2e7" class=""></path></g></g></svg>