<svg xmlns="http://www.w3.org/2000/svg" version="1.1" xmlns:xlink="http://www.w3.org/1999/xlink" xmlns:svgjs="http://svgjs.com/svgjs" width="512" height="512" x="0" y="0" viewBox="0 0 512 512" style="enable-background:new 0 0 512 512" xml:space="preserve" class=""><g><path d="M256 512c-68.38 0-132.667-26.629-181.02-74.98C26.629 388.667 0 324.38 0 256S26.629 123.333 74.98 74.98C123.333 26.629 187.62 0 256 0s132.667 26.629 181.02 74.98C485.371 123.333 512 187.62 512 256s-26.629 132.667-74.98 181.02C388.667 485.371 324.38 512 256 512z" style="" fill="#00c1fd" data-original="#00c1fd" class=""></path><path d="M437.02 74.98C388.667 26.629 324.38 0 256 0v512c68.38 0 132.667-26.629 181.02-74.98C485.371 388.667 512 324.38 512 256s-26.629-132.667-74.98-181.02z" style="" fill="#08a8ee" data-original="#08a8ee"></path><path d="M301 371V221H191v30h20v120h-21v30h130v-30zM256 191c24.813 0 45-20.187 45-45s-20.187-45-45-45-45 20.187-45 45 20.187 45 45 45z" style="" fill="#e4f7ff" data-original="#e4f7ff"></path><path d="M256 191c24.813 0 45-20.187 45-45s-20.187-45-45-45v90zM301 371V221h-45v180h64v-30z" style="" fill="#cbedfd" data-original="#cbedfd"></path></g></svg>